# xmcd CD database file
#
# Track frame offsets:
#	150
#	8277
#	17493
#	29739
#	48566
#	62930
#	70033
#	84986
#	95451
#	107417
#	119723
#	131888
#	145419
#	158124
#	166916
#	180063
#	191472
#	209980
#	227436
#	239190
#	249749
#	262029
#	272128
#
# Disc length: 3795 seconds
#
# Revision: 0
# Processed by: cddbd v1.5.1PL0 Copyright (c) Steve Scherf et al.
# Submitted via: CDex 1.40Beta9
#
DISCID=490ed117
DTITLE=Lévis Bouliane - Reviens oh mon amour
DYEAR=2005
DGENRE=Country
TTITLE0=Encore un jour, encore un soir
TTITLE1=Reviens oh mon amour
TTITLE2=Une larme dans ma bière
TTITLE3=Ces belles années auprès de toi
TTITLE4=Je n'ai rien oublié
TTITLE5=Jour et nuit je t'attendrai
TTITLE6=A la gare de mon village
TTITLE7=A minuit sous la pluie
TTITLE8=Je ne m'en vais pas a la maison
TTITLE9=Laisse-moi libre ce soir
TTITLE10=L'oiseau rouge
TTITLE11=Ce beau soleil me guidera
TTITLE12=La seule dans ma vie
TTITLE13=Je ne veux plus pleurer
TTITLE14=Ne réveillez pas la nuit
TTITLE15=Sans toi je suis si délaissé
TTITLE16=Je n'ai pas sommeil
TTITLE17=J'ai brûlé tes lettres d'amour
TTITLE18=Ne m'abandonne pas
TTITLE19=Diggy Diggy Lo
TTITLE20=J'attends le jour de ton retour
TTITLE21=Un autre jour, une autre chance
TTITLE22=Pour toujnours nous serons réunis
EXTD=YEAR: 2005 ID3G: 2
EXTT0=
EXTT1=
EXTT2=
EXTT3=
EXTT4=
EXTT5=
EXTT6=
EXTT7=
EXTT8=
EXTT9=
EXTT10=
EXTT11=
EXTT12=
EXTT13=
EXTT14=
EXTT15=
EXTT16=
EXTT17=
EXTT18=
EXTT19=
EXTT20=
EXTT21=
EXTT22=
PLAYORDER=
